<svg width="227" height="27" viewBox="0 0 227 27" fill="#E90464" xmlns="http://www.w3.org/2000/svg">
<path d="M216.935 15.75L211.25 24.75L209 24.75L211.842 15.75L205.812 15.75L203.938 19.125L202.25 19.125L203.375 14.0625L202.25 9L203.938 9L205.813 12.375L211.843 12.375L209 3.375L211.25 3.375L216.935 12.375L223.062 12.375C223.51 12.375 223.939 12.5528 224.256 12.8693C224.572 13.1857 224.75 13.6149 224.75 14.0625C224.75 14.5101 224.572 14.9393 224.256 15.2557C223.939 15.5722 223.51 15.75 223.062 15.75L216.935 15.75Z" fill="#E90464" fill-opacity="1"/>
<line x1="-4.37114e-08" y1="14.5" x2="205" y2="14.5" stroke="#E90464" stroke-opacity="1" stroke-dasharray="5 5"/>
</svg>
