<svg width="1117" height="165" viewBox="0 0 1117 165" fill="none" xmlns="http://www.w3.org/2000/svg">
<path fill-rule="evenodd" clip-rule="evenodd" d="M886.187 81.85C883.707 84.16 884.417 83.89 878.647 82.2C873.587 80.6 875.987 80.07 871.457 82.64C867.377 85.04 860.717 87.43 857.617 89.29C858.777 91.86 868.707 100.29 871.107 103.75C870.217 104.19 869.507 104.55 868.537 104.99C867.027 105.7 867.387 105.7 865.607 104.64C861.707 102.42 849.197 95.32 846.707 94.26C843.427 95.68 834.727 100.12 831.717 99.94C830.297 99.85 827.987 99.5 828.437 97.72C829.587 93.37 837.397 90.98 842.457 88.76C844.497 87.87 843.967 87.96 844.407 85.74C844.947 83.35 848.317 65.96 849.107 65.07C849.457 64.8 852.207 63.65 852.747 63.38C853.017 64.98 853.187 66.75 853.277 68.44L854.167 78.29C854.167 79.89 854.437 81.75 854.697 83.26C857.007 82.11 859.307 81.13 861.707 79.98C873.597 74.3 871.467 78.12 874.217 71.73C875.817 68.18 875.817 66.05 879.277 66.58C878.657 73.68 880.607 78.11 886.197 81.84L886.187 81.85ZM365.227 31.09C368.427 32.07 367.707 32.16 372.147 28.07C376.047 24.52 373.657 25.05 378.887 25.5C383.497 25.85 390.597 25.23 394.237 25.59C394.327 28.34 388.917 40.23 388.207 44.4H391.047C392.737 44.4 392.377 44.58 393.617 42.89C396.187 39.16 404.357 27.36 406.217 25.41C409.857 25.32 419.527 25.5 422.187 24.17C423.427 23.46 425.377 22.04 424.227 20.62C421.297 17.25 413.227 18.4 407.727 18.58C405.507 18.58 406.047 18.49 404.617 16.72C403.107 14.77 392.637 0.48 391.577 0.04C391.137 -0.05 388.117 0.04 387.587 0.04C387.947 1.64 388.567 3.23 389.187 4.83L392.647 14.14C393.267 15.56 393.887 17.42 394.337 18.84C391.767 18.75 389.187 18.84 386.527 18.84C373.397 18.84 377.037 21.41 371.707 16.8C368.787 14.23 367.897 12.36 364.967 14.32C368.517 20.44 368.697 25.32 365.237 31.09H365.227ZM363.807 22.04C365.137 21.86 365.587 23.9 364.067 24.17L361.937 24.44C360.607 24.71 360.067 22.58 361.577 22.31L363.797 22.04H363.807ZM175.367 163.99C174.657 165.41 172.707 164.34 173.327 163.1L173.857 161.95C174.567 160.62 176.517 161.68 175.807 162.93L175.367 164V163.99ZM178.737 156.98C178.027 158.31 176.077 157.34 176.787 156L177.767 154.05C178.387 152.72 180.337 153.78 179.717 155.02L178.737 156.97V156.98ZM182.727 149.17C182.107 150.41 180.067 149.53 180.777 148.19L181.837 146.24C182.457 145 184.407 145.89 183.787 147.31L182.717 149.17H182.727ZM186.987 141.54C186.187 142.87 184.327 141.63 185.037 140.48L186.187 138.53C186.987 137.2 188.757 138.44 188.047 139.59L186.987 141.54ZM191.417 134C190.617 135.24 188.757 134.09 189.557 132.85L190.707 130.99C191.417 129.75 193.367 130.9 192.567 132.14L191.417 134ZM196.117 126.55C195.407 127.7 193.457 126.64 194.257 125.4L195.497 123.54C196.207 122.39 198.157 123.45 197.267 124.78L196.117 126.55ZM200.997 119.36C200.107 120.51 198.427 119.18 199.227 118.03L200.467 116.26C201.357 115.11 203.127 116.44 202.237 117.59L200.997 119.36ZM206.147 112.26C205.257 113.41 203.577 112.08 204.457 110.93L205.787 109.16C206.677 108.01 208.357 109.43 207.467 110.49L206.137 112.26H206.147ZM211.297 105.61C210.497 106.05 209.527 105.34 209.607 104.46C209.517 103.93 209.957 103.22 210.587 103.13L211.297 102.24C212.187 101.18 213.957 102.51 212.987 103.66L212.807 103.93L213.157 104.02C214.577 104.55 213.687 106.59 212.357 106.06L211.287 105.62L211.297 105.61ZM217.237 98.69C216.167 99.76 214.667 98.25 215.637 97.18L217.057 95.58C218.117 94.43 219.627 96.02 218.657 97L217.237 98.69ZM223.177 92.21C222.197 93.27 220.517 91.77 221.577 90.7L223.087 89.1C224.067 88.04 225.657 89.54 224.687 90.61L223.177 92.21ZM229.297 86C228.147 86.98 226.727 85.29 227.787 84.4L229.297 82.89C230.447 81.82 231.867 83.51 230.897 84.49L229.297 86ZM235.687 79.97C234.617 80.95 233.117 79.35 234.177 78.37L235.867 76.86C236.927 75.88 238.437 77.57 237.287 78.55L235.687 79.97ZM242.257 74.29C241.277 75.18 239.777 73.58 240.927 72.61L242.617 71.19C243.857 70.21 245.097 72.08 243.947 72.88L242.257 74.3V74.29ZM249.177 68.79C247.937 69.68 246.697 67.9 247.847 67.1L249.537 65.77C250.777 64.88 252.017 66.66 250.867 67.46L249.177 68.79ZM256.187 63.64C255.127 64.44 253.707 62.75 254.947 61.87C255.567 61.43 256.187 60.98 256.807 60.63C257.867 59.83 259.287 61.52 258.047 62.4C257.427 62.84 256.807 63.2 256.187 63.64ZM263.467 58.76C262.227 59.56 261.157 57.61 262.317 56.9L264.177 55.75C265.417 54.95 266.577 56.9 265.327 57.61L263.467 58.76ZM270.917 54.23C269.767 54.94 268.527 53.08 269.857 52.28L271.807 51.22C272.957 50.51 274.197 52.37 272.867 53.17L270.917 54.23ZM278.637 49.97C277.217 50.68 276.327 48.64 277.567 48.02L279.517 46.96C280.847 46.34 281.827 48.38 280.587 49L278.637 49.98V49.97ZM286.447 46.07C285.207 46.69 284.137 44.74 285.467 44.03C286.177 43.76 286.797 43.41 287.507 43.14C288.747 42.52 289.727 44.47 288.397 45.09C287.777 45.44 287.067 45.71 286.447 46.07ZM294.427 42.43C293.007 42.96 292.297 40.92 293.537 40.39L295.577 39.5C296.997 38.97 297.707 41.09 296.377 41.54L294.427 42.43ZM302.497 39.15C301.167 39.68 300.367 37.64 301.697 37.11L303.827 36.31C305.067 35.78 305.957 37.82 304.537 38.35L302.497 39.15ZM310.747 36.14C309.417 36.58 308.617 34.54 310.037 34.1C310.747 33.83 311.457 33.57 312.167 33.39C313.407 32.86 314.207 34.9 312.787 35.43C312.077 35.7 311.457 35.87 310.747 36.14ZM319.087 33.48C317.577 33.83 317.137 31.71 318.467 31.35L320.597 30.73C322.017 30.38 322.547 32.5 321.127 32.86L319.087 33.48ZM327.517 31.08C326.097 31.44 325.567 29.31 326.987 28.95L329.117 28.42C330.447 28.07 331.067 30.19 329.647 30.55L327.517 31.08ZM336.037 29.04C334.707 29.39 333.997 27.27 335.507 26.82L337.727 26.38C339.237 26.11 339.507 28.33 338.167 28.51L336.037 29.04ZM344.547 27.18C343.127 27.45 342.777 25.32 344.197 25.05L346.327 24.7C347.837 24.43 348.187 26.56 346.767 26.83L344.547 27.18ZM353.247 25.67C351.827 25.94 351.387 23.81 352.897 23.54L355.027 23.19C356.447 22.92 356.887 25.14 355.377 25.41L353.247 25.68V25.67ZM57.8072 111.56C55.3172 113.87 56.0372 113.6 50.2672 111.83C45.2072 110.32 47.6072 109.7 43.0772 112.36C38.9972 114.67 32.3372 117.15 29.2372 119.01C30.3872 121.58 40.3272 130.01 42.7272 133.47C41.8372 133.91 41.1272 134.18 40.1572 134.62C38.6472 135.42 39.0072 135.42 37.2272 134.35C33.3272 132.13 20.8172 124.94 18.3272 123.97C15.0472 125.39 6.34718 129.83 3.33718 129.65C1.91718 129.56 -0.392816 129.12 0.0571843 127.34C1.20718 122.99 9.01718 120.6 14.0772 118.38C16.1172 117.49 15.5872 117.67 16.0272 115.45C16.5572 112.97 19.9372 95.67 20.7272 94.78C20.9972 94.51 23.8272 93.27 24.3672 93.09C24.6372 94.69 24.8172 96.37 24.8972 98.06L25.7872 108C25.7872 109.51 26.0572 111.46 26.3172 112.88C28.6272 111.81 30.9272 110.75 33.3272 109.69C45.2172 104.01 42.9972 107.83 45.8372 101.44C47.4372 97.89 47.3472 95.76 50.8972 96.29C50.2772 103.39 52.2272 107.82 57.8172 111.55L57.8072 111.56ZM55.2372 102.78C53.9072 103.22 54.4372 105.26 55.9472 104.91L57.9872 104.2C59.2272 103.84 58.7872 101.72 57.2772 102.07L55.2372 102.78ZM286.357 150.51C287.507 151.49 288.747 149.71 287.687 148.83L286.797 148.12C285.557 147.14 284.317 148.92 285.377 149.81L286.357 150.52V150.51ZM280.237 145.63C281.387 146.52 282.717 144.83 281.657 143.94L279.887 142.52C278.737 141.63 277.407 143.41 278.557 144.29L280.247 145.62L280.237 145.63ZM273.317 140.31C274.377 141.2 275.797 139.51 274.647 138.54L272.877 137.21C271.727 136.41 270.307 138.1 271.547 138.99L273.317 140.32V140.31ZM266.217 135.16C267.457 136.05 268.617 134.1 267.457 133.39L265.597 132.15C264.357 131.26 263.197 133.22 264.357 133.92L266.217 135.16ZM258.947 130.28C260.187 131.08 261.347 129.22 260.187 128.42L258.327 127.27C257.087 126.47 255.847 128.25 257.087 129.05L258.947 130.29V130.28ZM251.587 125.58C252.737 126.29 253.977 124.52 252.647 123.72L250.787 122.57C249.637 121.86 248.397 123.63 249.637 124.43L251.587 125.58ZM243.957 121.15C245.377 121.86 246.267 119.91 245.107 119.2L243.157 118.14C241.827 117.43 240.847 119.38 242.097 120.09L243.957 121.16V121.15ZM236.327 116.98C237.657 117.6 238.547 115.65 237.307 115.03L235.357 113.96C234.027 113.34 233.047 115.29 234.377 115.91L236.327 116.97V116.98ZM228.437 113.08C229.767 113.7 230.747 111.75 229.407 111.04L227.457 110.15C226.217 109.53 225.147 111.39 226.477 112.1L228.427 113.08H228.437ZM220.537 109.44C221.957 109.97 222.667 107.93 221.337 107.4L219.297 106.51C217.967 105.98 217.167 108.02 218.497 108.55L220.537 109.44ZM204.207 103.05C205.717 103.49 206.157 101.36 204.917 101.01L202.787 100.3C201.277 99.86 200.837 101.99 202.077 102.34L204.207 103.05ZM195.867 100.39C197.197 100.83 197.817 98.7 196.487 98.26L194.357 97.64C192.937 97.28 192.317 99.41 193.737 99.77L195.867 100.39ZM187.437 98.08C188.677 98.43 189.477 96.39 187.967 95.95L185.837 95.42C184.237 95.07 183.977 97.28 185.307 97.55L187.437 98.08ZM178.917 96.04C180.337 96.31 180.687 94.18 179.357 93.91L177.137 93.47C175.717 93.2 175.277 95.33 176.687 95.6L178.907 96.04H178.917ZM170.317 94.44C171.647 94.71 172.177 92.58 170.667 92.22C169.957 92.13 169.157 91.95 168.447 91.87C167.117 91.6 166.587 93.73 168.097 94.09C168.807 94.18 169.607 94.27 170.317 94.45V94.44ZM161.617 93.11C163.127 93.29 163.307 91.07 161.887 90.98L159.757 90.71C158.247 90.53 158.067 92.75 159.487 92.84L161.617 93.11ZM152.927 92.22C154.347 92.31 154.617 90.18 153.107 90L150.887 89.82C149.557 89.64 149.197 91.86 150.797 92.04L152.927 92.22ZM144.237 91.6C145.747 91.69 145.657 89.47 144.327 89.47L142.107 89.38C140.597 89.29 140.597 91.51 142.017 91.51L144.237 91.6ZM135.457 91.42C136.877 91.42 136.967 89.2 135.457 89.2H133.237C131.907 89.2 131.727 91.42 133.237 91.42H135.457ZM126.677 91.6C128.277 91.42 128.007 89.29 126.587 89.38L124.457 89.47C122.947 89.56 123.127 91.78 124.547 91.69L126.677 91.6ZM117.987 92.04C119.407 91.95 119.227 89.73 117.807 89.82L115.587 90C114.167 90.09 114.347 92.31 115.767 92.22L117.987 92.04ZM109.297 92.84C110.627 92.75 110.537 90.53 109.027 90.71C108.317 90.8 107.517 90.89 106.807 90.98C105.477 91.07 105.567 93.29 107.077 93.11C107.787 93.02 108.497 92.93 109.297 92.84ZM100.597 93.99C102.107 93.72 101.577 91.6 100.247 91.86L98.0272 92.13C96.6072 92.49 97.0472 94.62 98.3772 94.35L100.597 93.99ZM91.9072 95.5C93.3272 95.23 92.9772 93.02 91.5572 93.28L89.3372 93.72C88.0072 93.99 88.3572 96.12 89.7772 95.85L91.9072 95.49V95.5ZM83.3872 97.19C84.7172 97.01 84.3672 94.79 82.8572 95.06L80.7272 95.59C79.2172 95.95 79.9272 98.07 81.2572 97.72L83.3872 97.19ZM74.8672 99.32C76.2872 98.88 75.6672 96.75 74.2472 97.19L72.1172 97.72C70.6972 98.07 71.3172 100.2 72.7372 99.85L74.8672 99.32ZM66.3472 101.63C67.7672 101.28 67.2372 99.06 65.7272 99.5L63.6872 100.12C62.3572 100.47 62.7972 102.6 64.3072 102.25L66.3472 101.63ZM883.637 73.07C882.307 73.51 882.837 75.55 884.347 75.2L886.387 74.49C887.627 74.13 887.277 72.01 885.677 72.45L883.637 73.07ZM1114.76 120.89C1115.91 121.78 1117.24 120 1116.09 119.2L1115.2 118.4C1113.96 117.42 1112.72 119.29 1113.78 120.09L1114.76 120.89ZM1108.64 116.01C1109.8 116.9 1111.12 115.12 1110.06 114.24L1108.28 112.91C1107.13 112.02 1105.79 113.71 1106.95 114.6L1108.63 116.02L1108.64 116.01ZM1101.72 110.6C1102.78 111.49 1104.2 109.8 1103.05 108.91L1101.28 107.58C1100.13 106.69 1098.71 108.38 1099.95 109.35L1101.72 110.59V110.6ZM1094.62 105.54C1095.86 106.34 1097.02 104.48 1095.86 103.68L1094.09 102.44C1092.76 101.64 1091.6 103.51 1092.85 104.3L1094.62 105.54ZM1087.35 100.57C1088.59 101.37 1089.74 99.51 1088.59 98.71L1086.73 97.56C1085.49 96.76 1084.33 98.63 1085.49 99.42L1087.35 100.57ZM1079.98 95.87C1081.14 96.67 1082.38 94.89 1081.14 94.01L1079.19 92.86C1078.13 92.15 1076.8 93.92 1078.13 94.81L1079.99 95.87H1079.98ZM1072.44 91.43C1073.77 92.14 1074.66 90.19 1073.51 89.57L1071.56 88.42C1070.23 87.8 1069.25 89.75 1070.5 90.37L1072.45 91.44L1072.44 91.43ZM1064.72 87.26C1066.05 87.88 1067.03 86.02 1065.69 85.31L1063.74 84.33C1062.41 83.62 1061.52 85.66 1062.76 86.28L1064.71 87.25L1064.72 87.26ZM1056.82 83.36C1058.15 83.98 1059.13 82.03 1057.8 81.41L1055.85 80.43C1054.61 79.81 1053.55 81.76 1054.87 82.38L1056.82 83.36ZM1048.93 79.72C1050.35 80.25 1051.06 78.21 1049.73 77.68L1047.78 76.79C1046.36 76.26 1045.56 78.39 1046.89 78.83L1048.93 79.72ZM1040.77 76.44C1042.1 76.97 1042.98 74.93 1041.57 74.31L1039.53 73.6C1038.2 73.07 1037.4 75.11 1038.73 75.64L1040.77 76.44ZM1032.61 73.42C1034.12 73.86 1034.56 71.65 1033.32 71.29L1031.19 70.58C1029.68 70.14 1029.24 72.27 1030.48 72.71L1032.61 73.42ZM1024.27 70.67C1025.69 71.11 1026.22 68.98 1024.89 68.63L1022.76 68.01C1021.34 67.57 1020.72 69.7 1022.14 70.05L1024.27 70.67ZM1015.84 68.36C1017.08 68.71 1017.88 66.67 1016.37 66.23L1014.24 65.7C1012.64 65.35 1012.37 67.56 1013.71 67.83L1015.84 68.36ZM1007.33 66.41C1008.75 66.68 1009.1 64.46 1007.77 64.19L1005.55 63.75C1004.13 63.48 1003.77 65.61 1005.2 65.88L1007.33 66.41ZM998.717 64.72C1000.05 64.99 1000.59 62.86 999.067 62.59C998.357 62.41 997.647 62.32 996.847 62.15C995.607 61.97 994.987 64.1 996.497 64.37C997.297 64.46 998.007 64.64 998.717 64.73V64.72ZM990.017 63.39C991.527 63.57 991.707 61.44 990.287 61.26L988.157 60.99C986.647 60.81 986.467 63.03 987.887 63.12L990.017 63.39ZM981.327 62.5C982.747 62.68 983.007 60.46 981.507 60.28L979.287 60.1C977.957 60.01 977.597 62.14 979.197 62.32L981.327 62.5ZM972.627 61.97C974.137 61.97 974.047 59.75 972.717 59.75L970.497 59.66C968.987 59.66 968.987 61.79 970.407 61.88L972.627 61.97ZM963.837 61.7C965.257 61.7 965.347 59.57 963.837 59.48H961.617C960.287 59.48 960.107 61.7 961.617 61.7H963.837ZM955.057 61.88C956.657 61.79 956.387 59.57 954.967 59.66L952.837 59.75C951.327 59.84 951.507 62.06 952.927 61.97L955.057 61.88ZM946.357 62.32C947.777 62.23 947.687 60.01 946.177 60.19L943.957 60.37C942.537 60.46 942.717 62.59 944.137 62.5L946.357 62.32ZM937.667 63.21C938.997 63.03 938.907 60.81 937.397 60.99C936.687 61.08 935.887 61.17 935.177 61.26C933.847 61.35 933.937 63.57 935.447 63.39C936.157 63.3 936.867 63.21 937.667 63.21ZM928.967 64.27C930.477 64 929.937 61.88 928.617 62.14L926.397 62.49C924.977 62.76 925.417 64.89 926.747 64.62L928.967 64.26V64.27ZM920.267 65.78C921.687 65.51 921.337 63.39 919.917 63.65L917.707 64C916.377 64.27 916.727 66.48 918.147 66.22L920.277 65.78H920.267ZM911.747 67.55C913.077 67.28 912.727 65.07 911.217 65.42L909.087 65.86C907.577 66.3 908.287 68.35 909.617 67.99L911.747 67.55ZM903.227 69.59C904.647 69.15 904.027 67.11 902.697 67.46L900.477 67.99C899.057 68.43 899.677 70.47 901.097 70.12L903.227 69.59ZM894.797 71.9C896.127 71.55 895.597 69.42 894.177 69.77L892.047 70.39C890.717 70.74 891.157 72.96 892.667 72.52L894.797 71.9Z" fill="#E1E1E1"/>
</svg>
