<svg width="35" height="35" viewBox="0 0 50 50" fill="none" xmlns="http://www.w3.org/2000/svg">
<circle cx="25" cy="25" r="25" fill="white"/>
<g clip-path="url(#clip0_20_178)">
<path d="M18.8758 36.2502H13.4336V18.7248H18.8758V36.2502ZM16.1518 16.3342C14.4115 16.3342 13 14.8928 13 13.1526C13 12.3167 13.3321 11.515 13.9231 10.9239C14.5142 10.3329 15.3159 10.0008 16.1518 10.0008C16.9877 10.0008 17.7893 10.3329 18.3804 10.9239C18.9715 11.515 19.3035 12.3167 19.3035 13.1526C19.3035 14.8928 17.8914 16.3342 16.1518 16.3342ZM39.2441 36.2502H33.8137V27.719C33.8137 25.6858 33.7727 23.0783 30.9842 23.0783C28.1547 23.0783 27.7211 25.2873 27.7211 27.5725V36.2502H22.2848V18.7248H27.5043V21.1154H27.5805C28.307 19.7385 30.0818 18.2854 32.7297 18.2854C38.2375 18.2854 39.25 21.9123 39.25 26.6233V36.2502H39.2441Z" fill="#f43f5e"/>
</g>
<defs>
<clipPath id="clip0_20_178">
<rect width="26.25" height="30" fill="white" transform="translate(13 10)"/>
</clipPath>
</defs>
</svg>
