<svg width="35" height="35" viewBox="0 0 50 50" fill="none" xmlns="http://www.w3.org/2000/svg">
<circle cx="25" cy="25" r="25" fill="white"/>
<path d="M19.546 28.632H20.17C20.25 29.08 20.322 29.648 20.386 30.336C20.45 31.008 20.466 31.664 20.434 32.304C20.194 32.496 19.906 32.656 19.57 32.784C19.234 32.896 18.874 32.992 18.49 33.072C18.122 33.152 17.738 33.208 17.338 33.24C16.954 33.272 16.586 33.288 16.234 33.288C14.89 33.288 13.69 33.12 12.634 32.784C11.578 32.432 10.682 31.904 9.94597 31.2C9.22597 30.496 8.66597 29.6 8.26597 28.512C7.88197 27.408 7.68997 26.104 7.68997 24.6C7.68997 23.032 7.90597 21.704 8.33797 20.616C8.76997 19.512 9.35397 18.616 10.09 17.928C10.826 17.224 11.682 16.712 12.658 16.392C13.634 16.072 14.658 15.912 15.73 15.912C16.786 15.912 17.674 15.984 18.394 16.128C19.114 16.256 19.746 16.456 20.29 16.728C20.29 16.984 20.282 17.288 20.266 17.64C20.25 17.976 20.226 18.336 20.194 18.72C20.162 19.104 20.122 19.48 20.074 19.848C20.026 20.216 19.978 20.552 19.93 20.856H19.306L18.058 17.4C17.882 17.304 17.586 17.24 17.17 17.208C16.77 17.176 16.37 17.16 15.97 17.16C15.17 17.16 14.41 17.312 13.69 17.616C12.986 17.904 12.362 18.36 11.818 18.984C11.29 19.592 10.866 20.368 10.546 21.312C10.226 22.24 10.066 23.336 10.066 24.6C10.066 25.736 10.21 26.768 10.498 27.696C10.786 28.608 11.202 29.392 11.746 30.048C12.29 30.688 12.954 31.184 13.738 31.536C14.522 31.872 15.41 32.04 16.402 32.04C16.93 32.04 17.37 32 17.722 31.92C18.074 31.84 18.306 31.736 18.418 31.608L19.546 28.632ZM35.0153 33H29.8793V32.4C30.0393 32.304 30.2313 32.208 30.4553 32.112C30.6953 32 30.9753 31.904 31.2953 31.824V26.28C31.2953 25.64 31.2633 25.064 31.1993 24.552C31.1513 24.04 31.0473 23.616 30.8873 23.28C30.7433 22.928 30.5273 22.664 30.2393 22.488C29.9513 22.296 29.5753 22.2 29.1113 22.2C28.7593 22.2 28.4313 22.272 28.1273 22.416C27.8393 22.56 27.5753 22.752 27.3353 22.992C27.1113 23.232 26.9113 23.504 26.7353 23.808C26.5753 24.112 26.4473 24.432 26.3513 24.768V31.824C26.6073 31.904 26.8473 31.992 27.0713 32.088C27.3113 32.168 27.5433 32.272 27.7673 32.4V33H22.6073V32.4C22.8313 32.288 23.0793 32.184 23.3513 32.088C23.6233 31.992 23.9033 31.904 24.1913 31.824V22.392L22.6073 22.2V21.576C23.1193 21.352 23.6393 21.176 24.1673 21.048C24.7113 20.904 25.2393 20.792 25.7513 20.712H26.3513V23.424H26.3753C26.6313 22.672 27.0633 22.032 27.6713 21.504C28.2953 20.976 29.0633 20.712 29.9753 20.712C30.3593 20.712 30.7273 20.752 31.0793 20.832C31.4313 20.912 31.7593 21.064 32.0633 21.288C32.3673 21.496 32.6233 21.792 32.8313 22.176C33.0393 22.56 33.1913 23.056 33.2873 23.664C33.5753 22.784 34.0393 22.072 34.6793 21.528C35.3193 20.984 36.1193 20.712 37.0793 20.712C37.6713 20.712 38.1833 20.792 38.6153 20.952C39.0633 21.096 39.4313 21.36 39.7193 21.744C40.0073 22.128 40.2153 22.648 40.3433 23.304C40.4873 23.96 40.5593 24.792 40.5593 25.8V31.824C41.1033 31.92 41.6313 32.112 42.1433 32.4V33H36.9833V32.4C37.4633 32.144 37.9353 31.952 38.3993 31.824V25.848C38.3993 25.272 38.3673 24.76 38.3033 24.312C38.2553 23.864 38.1513 23.488 37.9913 23.184C37.8313 22.864 37.6073 22.624 37.3193 22.464C37.0313 22.288 36.6473 22.2 36.1673 22.2C35.3993 22.2 34.7993 22.464 34.3673 22.992C33.9513 23.52 33.6473 24.192 33.4553 25.008V31.824C34.0153 31.984 34.5353 32.176 35.0153 32.4V33Z" fill="#f43f5e"/>
</svg>
